<?xml version="1.0" standalone="no"?><svg xmlns="http://www.w3.org/2000/svg" viewBox="0 0 1440 320"><path fill="#00cba9" fill-opacity="0.5" d="M0,192L40,197.3C80,203,160,213,240,213.3C320,213,400,203,480,170.7C560,139,640,85,720,74.7C800,64,880,96,960,128C1040,160,1120,192,1200,186.7C1280,181,1360,139,1400,117.3L1440,96L1440,320L1400,320C1360,320,1280,320,1200,320C1120,320,1040,320,960,320C880,320,800,320,720,320C640,320,560,320,480,320C400,320,320,320,240,320C160,320,80,320,40,320L0,320Z"></path></svg>